<?xml version="1.0" standalone="no"?><!DOCTYPE svg PUBLIC "-//W3C//DTD SVG 1.1//EN" "http://www.w3.org/Graphics/SVG/1.1/DTD/svg11.dtd"><svg t="1604569914752" class="icon" viewBox="0 0 1024 1024" version="1.1" xmlns="http://www.w3.org/2000/svg" p-id="2786" xmlns:xlink="http://www.w3.org/1999/xlink" width="200" height="200"><defs><style type="text/css"></style></defs><path d="M453.632 329.216c-1.536 0 4.096-44.032 18.944-46.08 16.896-2.048 17.92-77.312 17.92-78.848 2.56-10.24 28.672-23.04 37.888-20.48 8.704 2.56 5.632 16.896 4.608 33.792-1.536 31.744 10.24 65.536 22.528 66.56 13.312 1.536 8.704 45.056 6.144 45.056H453.632z" fill="#967245" p-id="2787"></path><path d="M520.192 199.168s-8.192 33.792-1.024 67.072h7.168c0 0.512-4.096 2.048-6.144-67.072z" fill="#FFFFFF" p-id="2788"></path><path d="M520.704 198.656c0 2.56-0.512 6.144-0.512 8.704 0 3.072-0.512 6.144-0.512 9.728-1.536 30.208 8.192 72.704 30.72 79.872 1.024 4.096 1.536 11.776 1.024 18.432H468.992c1.536-7.68 4.608-15.872 7.168-18.944 17.92-3.584 25.6-29.184 28.16-88.576 2.56-2.56 10.752-7.168 16.384-9.216m5.12-14.848c-10.752 0-32.768 11.776-35.328 20.48-0.512 1.024-1.536 76.288-17.92 78.848-14.848 2.048-19.968 46.08-18.944 46.08h108.544c2.56 0 7.168-43.52-6.144-45.056-12.8-1.024-24.064-34.816-22.528-66.56 1.024-16.896 4.096-31.232-4.608-33.792-1.024 0.512-2.048 0-3.072 0z" fill="#353942" p-id="2789"></path><path d="M520.704 199.68s86.528-154.112 295.936-100.352c-0.512-0.512-43.008 167.936-295.936 100.352z" fill="#60ED58" p-id="2790"></path><path d="M543.232 191.488s141.312 3.072 201.216-19.456c0 0-63.488 51.2-201.216 19.456z" fill="#43CE38" p-id="2791"></path><path d="M609.792 132.608s107.52-23.552 181.76-8.704c0 0 1.536 0 8.704-16.384-38.4-6.656-103.936-21.504-190.464 25.088z" fill="#BDFFB8" p-id="2792"></path><path d="M731.648 87.552v13.824c21.504 0 43.52 2.56 66.56 7.168-12.8 28.672-53.76 93.184-167.424 93.184-26.624 0-56.32-3.584-88.064-10.752 22.528-29.184 81.92-89.6 188.416-89.6l0.512-13.824m0 0C583.68 87.552 520.704 199.68 520.704 199.68c42.496 11.264 78.848 15.872 110.08 15.872 155.648 0 185.344-116.736 185.344-116.736-30.72-7.68-58.88-11.264-84.48-11.264z" fill="#353942" p-id="2793"></path><path d="M744.448 483.84c-73.728-104.448-96.256-97.792-117.248-163.328C608.256 260.608 508.928 266.24 508.928 266.24s-98.816-5.632-118.272 54.272c-20.992 65.536-44.544 58.88-118.272 163.328-98.304 139.264-112.64 365.056 155.648 442.368 21.504 6.144 61.952 10.24 80.896 10.24s59.904-4.096 80.896-10.24c268.8-77.312 252.928-303.104 154.624-442.368z" fill="#F9F941" p-id="2794"></path><path d="M377.344 376.832S311.296 531.968 307.2 556.544c-4.608 26.112-88.064 293.888 153.088 362.496 0 0-299.008-45.056-227.328-317.44 29.184-111.104 144.384-224.768 144.384-224.768z" fill="#F7E457" p-id="2795"></path><path d="M556.032 284.672s42.496 30.208 40.448 54.272c-1.536 24.064 40.96 86.528 55.808 97.28 14.848 10.752 92.672 122.368 105.472 167.936 13.312 47.616 25.6 122.368-73.216 265.728 0 0 60.928 0.512 105.472-112.128 44.544-112.64-23.04-232.448-55.808-275.968s-118.784-139.776-113.664-152.064c5.632-12.288-46.592-64-64.512-45.056z" fill="#FFFF66" p-id="2796"></path><path d="M568.832 286.72s35.328 22.016 39.424 46.592c4.096 24.576 27.136 57.344 34.304 65.024s111.616 105.472 133.632 202.752c18.944 83.968 25.088 152.576-76.8 260.608 0 0 80.384-33.792 100.352-136.704 0 0 15.872-133.12-58.368-234.496 0 0-105.984-130.56-110.08-147.968l-4.096-17.408s-34.304-46.08-58.368-38.4z" fill="#FFFFFF" p-id="2797"></path><path d="M516.096 280.064c19.456 0 84.992 3.072 98.304 44.544 12.8 40.448 26.624 55.808 49.664 81.408 15.872 17.92 38.4 41.984 69.12 86.016 58.368 82.944 77.824 182.784 50.176 261.12-26.112 75.264-94.72 130.56-197.12 160.256-19.968 5.632-59.904 9.728-77.312 9.728s-57.344-3.584-77.312-9.728c-102.912-29.696-171.52-85.504-198.144-160.768-27.648-78.336-8.192-177.664 49.664-260.608 31.232-44.544 53.76-68.608 70.144-86.528 22.528-24.064 37.376-40.448 50.176-80.384 13.312-41.472 78.336-44.544 98.304-44.544H509.952c0-0.512 2.56-0.512 6.144-0.512m0-13.824h-6.656-6.656c-23.04 0-95.232 4.096-111.104 54.272-20.992 65.536-44.544 58.88-118.272 163.328-98.304 139.264-112.64 365.056 155.648 442.368 21.504 6.144 61.952 10.24 80.896 10.24 19.456 0 59.904-4.096 80.896-10.24 268.288-77.312 252.416-303.104 154.112-442.368-73.728-104.448-96.256-97.792-117.248-163.328-16.384-50.176-88.576-54.272-111.616-54.272z" fill="#353942" p-id="2798"></path><path d="M578.289113 803.759412a10.24 10.24 0 1 0 8.425208-18.666716 10.24 10.24 0 1 0-8.425208 18.666716Z" fill="#F7F246" p-id="2799"></path><path d="M647.018994 790.849636a12.288 12.288 0 1 0 10.110249-22.400059 12.288 12.288 0 1 0-10.110249 22.400059Z" fill="#F7F246" p-id="2800"></path><path d="M647.423065 740.742875a8.704 8.704 0 1 0 16.02403-6.802127 8.704 8.704 0 1 0-16.02403 6.802127Z" fill="#F7F246" p-id="2801"></path><path d="M492.923516 879.558262a6.144 6.144 0 1 0 5.055125-11.20003 6.144 6.144 0 1 0-5.055125 11.20003Z" fill="#F7F246" p-id="2802"></path><path d="M491.52 820.224m-16.896 0a16.896 16.896 0 1 0 33.792 0 16.896 16.896 0 1 0-33.792 0Z" fill="#F7F246" p-id="2803"></path><path d="M663.038031 818.807676a7.68 7.68 0 1 0 14.382114-5.392994 7.68 7.68 0 1 0-14.382114 5.392994Z" fill="#F7F246" p-id="2804"></path><path d="M557.056 832m-7.168 0a7.168 7.168 0 1 0 14.336 0 7.168 7.168 0 1 0-14.336 0Z" fill="#F7F246" p-id="2805"></path><path d="M626.353118 832.922088a4.608 4.608 0 1 0 5.882552-7.094381 4.608 4.608 0 1 0-5.882552 7.094381Z" fill="#F7F246" p-id="2806"></path><path d="M571.939235 850.105333a4.608 4.608 0 1 0 9.109326-1.398154 4.608 4.608 0 1 0-9.109326 1.398154Z" fill="#F7F246" p-id="2807"></path></svg>